<?xml version="1.0" encoding="utf-8"?>
<!-- Generator: Adobe Illustrator 26.0.1, SVG Export Plug-In . SVG Version: 6.00 Build 0)  -->
<svg version="1.1" id="Слой_1" xmlns="http://www.w3.org/2000/svg" xmlns:xlink="http://www.w3.org/1999/xlink" x="0px" y="0px"
	 viewBox="0 0 1392.1 1669.1" style="enable-background:new 0 0 1392.1 1669.1;" xml:space="preserve">
<style type="text/css">
	.st0{fill:none;stroke:#5BE7C3;stroke-width:2;}
	.st1{fill:none;stroke:#5ACEF2;stroke-width:2;}
	.st2{fill:none;stroke:#FF8062;stroke-width:2;}
	.st3{fill:none;stroke:#F1B170;stroke-width:2;}
</style>
<g id="Слой_2_00000091697607760802232600000013865623811171026307_">
	<g id="Слой_1-2">
		<path class="st0" d="M510.5,603.5c-0.1-22-31.7-46.7-45.2-59.4c-26.7-25.2-54.5-48.5-82-72.1s-55.1-47.2-81.4-73.2
			c-17-16.9-37.1-35.8-48.6-59.9c-24.6-51.3,53-43.7,73.1-44.8c51.2-2.9,109.9-1.6,157.8-28.3c28.6-15.9,40-42.7,33.9-81.6
			c-2-12.7-7.9-27.3-2.9-39.6c5.3-13.2,17.5-20.8,27.7-25.9c37-18.6,79.5-20.8,118.5-23.1c42.2-2.6,84.7-1.8,126.6-2
			c17.8-0.1,36.3-8.3,53.2-15c22.2-8.8,44.1-18.7,66-28.2c48.4-20.9,98.2-43,149.3-48.3c32-3.3,67.1,1.2,91.9,30.2
			c12.5,14.6,19,36.2,26.3,55.4c8.7,23.2,17.1,46.7,26.4,69.5c30,73.6,72.8,145.6,142.3,149.2c10.5,0.5,20.8-1.2,31.3-1.6
			c6.7-0.2,12.6,1.9,15.1,10.9c6.2,22.6-13.3,58.3-21.4,76.3c-17.6,39.3-37.4,76.8-56,115.3c-12.3,25.5-33.6,60.2-33.8,91.2
			c-0.2,27.6,28.1,47.5,43.6,61.1c14.5,12.7,40.7,30.5,42.2,56.4c0.8,12.5-5.6,22.9-12.3,31c-11.7,14.1-25.2,24-35.7,40.1
			c-17.2,26.4-31.7,62.7-29.3,98.3c1.6,24.7,12.5,40.8,26.3,56.2c5.8,6.5,10.5,11.1,10.8,21.6c0.5,16.7-4.6,34.4-8.7,49.9
			c-14.9,55.5-36.1,109.1-59.7,159.2c-11.8,25-24.5,50-40.1,71.4c-10.2,14-24,30.7-39.6,30.7c-18.1,0-37.2-8.4-54.8-14.7
			c-32.8-11.8-65.2-25.4-97.5-39.4c-74.7-32.4-148.6-67.3-221.8-104.9c-51.6-26.5-104.3-53.1-152.8-88.3
			c-9.7-7.1-18.6-15.2-26.7-24.1c-8.8-9.6-19.8-13.8-31-17c-69-19.9-144.7-4.7-214,4.8c-17.6,2.4-35.2,4.8-52.9,6.5
			c-15.2,1.5-33.4,5.6-48.1-0.6c-29.1-12.3-3.7-57.8,7.1-76.4c37.8-65.2,86.6-120.5,131.8-176.8c21.5-26.8,43.2-53.6,63.5-82
			C489.7,646.7,510.6,622.7,510.5,603.5z"/>
		<path class="st1" d="M523.6,599.8c-11.6-23.3-31.9-40.5-48.8-56.6c-24.3-23.3-49.4-45.3-74-67.9c-23.3-21.4-46.7-43-68.3-67.4
			c-13.2-14.8-29.7-32.5-36-54.5c-13.5-47.5,59.3-40.3,77.3-41.5c44.7-3.1,95.4-3.8,136.8-28.8c25.8-15.6,36.4-41.5,30.9-77.5
			c-1.9-12.4-5.3-23.1-1-35.4c5-14.3,16.6-23.3,27.2-29.6c33.2-19.8,72.4-24,108.4-27.4c37.2-3.6,75.9-6.2,111.8-3.5
			c14.4,1.1,30.9-4.9,45.2-9.5c21.9-7,43.6-15.2,65.3-22.7C942.5,62,988,47.2,1034,45.5c33.2-1.2,67.9,5.4,95.6,30.9
			c28,25.9,40.5,66,56,104.1c26.9,65.9,63.1,146,125.2,160c9.4,2.1,18.5,1,27.9,1.5c4.8,0.3,10.3,1.1,12.8,7.3
			c6.4,16-11.1,45.3-17,57.6c-16.2,33.9-34.5,66.1-51.5,99.4c-13.5,26.4-30.6,55.7-35.9,87.1c-6.3,38,35.1,65,49.7,91.8
			c25.3,46.4-22.6,72.8-46.2,94.9c-27.1,25.4-49.5,71.7-25.2,111c9.3,15,20.7,24,24.9,43.6c6.5,30.7,1.6,65.7-3.7,96
			c-7.9,45.6-20.5,90.6-37.6,131.8c-12.2,29.5-32.5,75.7-62.2,72.2c-20-2.3-40.3-10.8-59.8-18.2c-29.2-11.2-57.9-23.9-86.6-37.2
			c-66.1-30.5-131.5-64.1-195.5-101c-43.7-25.2-165.7-128.3-174.9-132c-27.4-11-58.5-9-86.7-7.3c-37.5,2.3-74.9,8.1-112.2,13.5
			c-17.8,2.6-35.6,5.7-53.5,7c-12.7,0.9-29.4,1.7-40.5-7.9c-21.6-18.8,2.6-61.4,12.6-79.5c30.7-55.3,69.5-103.2,105.8-152.2
			c17.9-24,36-48.1,52.2-74C514.3,635.2,530.7,614.1,523.6,599.8z"/>
		<path class="st0" d="M539.6,587.8c-31.7-46.5-75.4-81.2-113.1-120c-18.9-19.5-38-39.6-54.3-62.8c-8.5-12.1-19.1-27.4-20.7-44.2
			c-4.4-45.1,61.3-39,80.9-40.7c38-3.3,80.9-5.8,115.4-28.8c21.1-14.1,31.4-37.1,27.5-67.5c-1.8-13.5-4.5-24.9,0-38.1
			c4.5-13.4,13.9-22.8,23.5-29.9c27.4-20.4,61.5-26.9,92.3-31.7c36.1-5.6,72.6-7.9,109.1-6.6c31.9,1.1,63.7-11.1,94.9-19.1
			c41.3-10.6,83.3-19.9,125.6-18.5c33.4,1.1,67,9.9,95.5,33.2c29,23.7,46.4,59.2,62.1,97.5c23.8,57.9,53.4,135.5,105.5,157.5
			c7.6,3.2,14.7,3.6,22.5,4.1c3.8,0.3,8.7,0.4,10.6,5.5c4.5,12.3-12.2,36.2-16.9,44.6c-14.9,26.6-31.1,52-46.4,78.2
			c-14.3,24.5-29.8,50-38.7,78.7c-14.1,45.7,31,72.5,29.8,116c-0.8,27.1-20.8,46.5-36.7,59.9c-19.5,16.5-47.7,27.3-57.4,57.5
			c-7.3,22.4,4.1,35.5,12.9,52.5c14.9,28.8,15.9,67.9,14.4,101.3c-2.1,45.1-10.3,90.9-24.2,132.4c-6.3,18.8-14,38.4-25.4,53
			c-10.7,13.7-20.7,17.2-35,14.4c-43.6-8.6-87.6-32.5-129.4-53.9c-53.2-27-104.8-57-154.5-89.9c-34.3-22.8-69.3-46.8-99.4-78.3
			c-7.8-8.2-15.9-17.1-21.6-27.9c-4.3-8.1-6.2-14.8-13.5-19.5c-21.7-13.7-51.8-10.2-74.9-8.7c-37.1,2.3-74,8.3-110.9,13.8
			c-21.5,3.2-62,13.3-79.2-10.9c-14.8-20.9,3.1-56.5,12.2-74.9c23.1-46.5,52.9-87.3,80.4-129.4c12.6-19.3,25.8-38.7,36.2-60.1
			c2.7-5.5,6.9-12.7,7.7-19.3C547.3,599.4,543.5,593.6,539.6,587.8z"/>
		<path class="st1" d="M542.3,598.7c-29.2-41.2-64.5-75-95.9-113.5c-14.1-17.3-28.3-35.4-39-56.4c-5.8-11.3-11.9-25.6-10.3-39.7
			c4.6-40.4,58.6-36.8,80.4-39.1c32.4-3.5,69.7-7,98.3-28.8c18.8-14.3,25.8-35.4,22.3-62.5c-3.8-29.2,4.7-50.3,23.8-66.6
			c24-20.4,54.3-28.7,82.2-34.6c33.4-7.1,67.5-10.2,101.6-9.4c33.1,0.8,65.1-6.4,98-11c43.6-6.2,88.5-9.2,131.6,3.4
			c37.5,11,71.4,35.3,96.8,72.9c26.5,39.2,39.7,88.6,61.2,132c13.4,27.1,32.2,62.9,57.3,73.4c8.4,3.5,23.6-1.2,16.9,16
			c-3.8,9.9-11,18.5-16.6,26.6c-9.1,13-18.6,25.7-27.9,38.6c-19.8,27.4-41,55.4-55.8,87.9c-18.7,40.9,9.1,72.3,5.7,113.8
			c-1.8,22.3-13.8,40.1-26.5,54.1c-8.1,8.8-16.9,16.9-26.3,24.3c-9.6,7.7-20.9,13.5-29.2,23.4c-11.9,14.1-6.7,30.7-4.5,48.9
			c3.9,32.1,4.8,64.4,2.6,96.7c-2.7,39.5-9.1,80.1-22.5,116c-5.2,14-11.8,28.8-21.7,38.2s-20,8.7-31.2,5.9
			c-33.4-8.3-66.7-27.7-98.4-46.1c-40.3-23.2-79-49.3-115.6-78c-25.6-20.2-51.3-42-72.7-69.4c-6.5-8.1-12.2-16.8-17-26
			c-3.3-6.5-5.1-15-9.8-19.9c-14.9-15.3-44.9-10.8-62.4-9.9c-34.9,1.8-69.3,10.2-104.2,12.3c-19,1.1-48.9,4-62.8-17
			c-13.1-19.7-1.2-50.8,6.6-69.8c15.5-37.3,36.2-70.6,54.8-105.3c7.6-14.3,16-29.2,21-45.5C557.4,619.7,549.8,609.2,542.3,598.7z"/>
		<path class="st2" d="M549.5,599.3c-23.3-36.2-51.4-68.3-74.8-105.2C461,472.6,437.3,436.4,448,406c11.6-33.4,52.2-34.3,75.7-37
			c27.9-3.2,60.7-7.6,84.6-28.4c7.6-6.6,14-15.3,16.7-26.8c2.9-12.3-0.3-23.1-0.7-35.4c-0.9-25.8,11-46.6,26.8-60.8
			c22.3-20.1,50.2-29.6,76.5-36.3c29.6-7.5,60-11.1,90.5-11c29,0.1,57.8-0.7,86.8-1.7c38-1.3,76.6,0.8,113.5,13.8
			c36.3,12.9,69.4,37,95.3,72.5c25.3,34.6,42.4,77,57.3,120.1c8.5,24.5,22.8,61,43.1,73.4c9,5.5,17.8,5.1,8.3,19.4
			c-12.1,18-28.3,32.5-42.3,47.9c-20.1,22.2-40.8,44.9-57.7,71.3c-10.8,16.9-15.6,33.3-14.9,55.1c0.6,16.7,3.2,33.1,1.9,49.8
			c-3.1,39.2-27,66.2-48.1,91.2c-13.6,16.1-26,28.4-33,51.3c-8.3,27.1-11.8,56.6-17.3,84.7c-6.1,30.9-13.1,63-26.3,90.2
			c-11.8,24.2-26.2,35.1-47.6,28.6c-33.5-10.2-66.5-35.2-96.3-58.4c-30.3-23.6-60-50.1-85.1-82.5c-13.6-17.5-22.9-38.1-34.9-56.9
			c-15.1-23.6-49.4-14.7-69.7-12.7c-33.8,3.3-140,28.1-130.2-52.3c4.1-33.6,20.2-64.5,32-94.2c4.9-12.3,12-27,13.1-41.1
			C567.3,624.8,556.5,610.2,549.5,599.3z"/>
		<path class="st3" d="M561.8,602.4c-17.8-32.8-39.1-63.8-54.4-99.3c-9.9-23-19.6-53.6-6.9-77.9c14.4-27.4,46.2-33.8,69.6-37.3
			c24.1-3.6,52.8-6.6,72.5-27.4c6.3-6.6,11.4-15.5,12.4-26.2c0.9-10.2-1.7-20.5-0.8-30.9c1.9-23.4,12.9-42.8,27.1-56.8
			c41.9-41.4,104.3-50.7,154.9-51.7c25.3-0.5,51.4,2.3,76.8,4.3c33.1,2.6,66.2,8.3,97.7,21.9c67,28.9,112,93,143.3,172.7
			c9.9,25.1,17.4,52.2,32.9,72.4c8,10.4,6.2,17.9-1.9,27.4c-12.8,14.9-28.3,26.2-42.5,38.6c-20.1,17.6-40.7,35.5-58.5,56.6
			c-12.3,14.5-21,28.6-23.6,50.4c-1.9,15.5-1.4,31.4-2.6,47c-2.2,29.7-9.6,59.2-22.7,83.9c-10.4,19.5-22.8,37.3-35.6,54.2
			c-16.8,22-31.3,45.7-43.3,70.6c-16.8,34.6-40.3,98.5-79.7,81.6c-43.5-18.7-84.3-66.1-112.2-112c-9.4-15.4-17.1-34.3-29.7-45.7
			c-18.9-17-38.1-16.4-60.7-16.3c-33.7,0.1-107,9.6-107.8-55.8c-0.3-25.9,8.3-50.3,12.5-75.2C583.3,643.6,574,624.8,561.8,602.4z"/>
		<path class="st0" d="M575.1,605.3c-17.6-42.8-57.1-113-27-160.6c15.9-25.1,43.9-34.6,67.4-40.2c18.9-4.6,41.8-6.3,56.1-25.6
			c10.5-14.2,5.8-34.8,9.9-52.6c4.7-20.5,15.3-39.1,30.6-53.6c39.4-37.9,94.2-49.5,141.6-51.9c49.2-2.6,103.5,9.4,149.8,32.5
			c57.8,28.8,101,83.2,131.3,152.1c5.6,12.7,10.7,25.8,16,38.7c3.6,8.6,8.9,17,11.8,26.1c4.7,15.1-0.8,27.5-9.8,37.4
			c-12.8,14.2-28.6,24.3-43.3,35c-20,14.6-40.5,28.9-59.1,46.1c-12.5,11.5-25.6,23.9-30.1,43.9c-3.1,13.6-3.7,28.1-3.6,42.2
			c0.2,30.3-1,54.8-11.9,82.5c-18,45.5-45.7,86.5-74.9,120.6c-22.9,26.7-59.2,68.3-92.6,50.4c-30-16-47.5-54.3-67.3-85.3
			c-9.6-15.1-20.4-28.8-33.1-39.5c-16-13.5-31-19.2-50-21.4c-31.9-3.7-79.9-4.7-89.8-54.1c-3.6-18.2-1.6-37.1-3.5-55.6
			C591.2,647.9,583.9,626.9,575.1,605.3z"/>
		<path class="st2" d="M593.4,606.9c-12.5-46.8-29-105.8,1.3-147.4c14.7-20.1,35.3-31.4,55.2-39.8c14.3-6,37-7.8,45.8-26.4
			c6.4-13.6,7.3-32.5,13.2-47.1c7.5-18.9,19.3-35.9,34.3-49.6c37-33.8,85.3-46.8,129.3-50.6c95.6-8.1,192.9,56.5,244.1,162.8
			c15.3,31.7,35,65.4,10.3,97.8c-26.9,35.3-67.5,51.8-99.6,76.9c-12.3,9.6-27.9,21.1-34.8,38.4c-4.1,10.4-4.4,23.5-4.6,35
			c-0.5,29.2-2.4,55.5-11.5,82.8c-14,42.1-36.4,81-61.8,112.9C892.5,880.3,861,913,828.9,893c-24.6-15.4-40.2-48-59.4-72.1
			C748.2,794,721.9,776,693,767.1c-28.1-8.6-59-14.3-73.8-50.7c-5.1-12.5-10.4-28.6-12.3-42.5C603.8,651.3,599.3,629,593.4,606.9
			L593.4,606.9z"/>
		<path class="st3" d="M613.8,607.2c-5.8-47.3-6.4-96.5,20.5-133.8c12.6-17.4,28.5-29.7,44.5-40.9c11.8-8.2,24-15.2,32.9-28.7
			c8.2-12.5,14.4-27,22.3-39.8c9.9-16.4,22.4-31.1,36.9-43.5c35.2-29.7,78-43.5,118.9-48.4c19.8-2.3,41.3-3.6,61,2.8
			c19,6.1,37.8,15.9,55.3,27.2c37.2,24.1,69.4,59.4,92.7,104c16,30.6,24.7,60.4,3.9,91.4c-23.4,35-60,54.3-90.2,77
			c-20.7,15.6-43.9,30.8-47.8,63.9c-3.1,26.3-5.6,51.3-13.6,76.2c-11.9,36.7-29.3,70-51.3,97.8c-20.1,25.3-45.6,46.9-74.3,33.3
			c-22.8-10.8-40.5-34.8-60.4-52c-22.2-19.2-46.6-29.8-72.3-38.3c-23.1-7.7-44.8-19.5-59.7-44.6c-3.3-5.3-6.2-10.8-8.6-16.5
			c-3-7.3-2.8-14.6-3.4-22.8C619.7,650,616.4,628.6,613.8,607.2z"/>
		<path class="st0" d="M636.3,603.4c0.5-44.9,8.8-87.3,31.7-122.3c9.8-15,21.5-27.3,32.2-41c8.7-11,16.8-21.3,26.8-30.4
			c23.6-21.6,42.8-49.5,67.9-68.7c33.5-25.7,71.9-39.9,110-45.5c18.6-2.8,37.8-3.7,56.6-0.6c16.2,2.7,31.6,12.1,46,21.8
			c28.1,18.9,55.5,45.8,73.7,79.9c40.3,75-39.1,129.6-79.9,161.5c-18.8,14.7-47.4,31.7-55.1,60.8c-5.5,20.8-8.8,41.9-15.9,62.1
			c-19,54.1-57.5,117.8-108.9,109.3c-22-3.6-42-18.3-62.5-28.2c-21.2-10.2-42.9-15.9-64.9-22.1c-20.5-5.8-36.9-14.1-50.1-36.2
			c-6.3-10.6-5.8-23.3-6.3-36.2C636.6,646.1,636,624.7,636.3,603.4z"/>
		<path class="st1" d="M656.8,597.6c8.2-67.8,38.9-141.7,84-181.1c53-46.3,110.4-85.3,173.8-96.5c29.4-5.2,61.5-7.8,89.2,9.2
			c21.1,12.9,45.6,32.2,57.2,59.4c28.4,66.4-34.8,119.3-70.7,150.1c-19.4,16.5-44,32.7-58.6,56.8c-8.5,14-12.8,32.5-19.6,47.9
			c-20.7,46.6-54.8,84.2-97.3,91c-19.6,3.1-39.4-0.7-58.9-3.8c-20-3.1-40.2-4.8-60-9.2c-15.8-3.5-34.5-9.4-40.3-31.3
			C648,662.7,653.4,625.3,656.8,597.6z"/>
		<path class="st3" d="M676.8,586.8c12-63.7,37.5-125.8,80.4-163.9c22.7-20.2,49.1-34.1,74.4-47.8c28.7-15.6,58.7-27.7,89.3-33.7
			c38.1-7.5,99.9-14.2,119.8,42c19.8,55.8-30.2,105.1-59.8,133.3c-19,18-39.2,34.6-57.3,54.3c-9.8,10.7-17.4,23-25.7,35.5
			c-23,34.7-55.7,62.2-89,76.9c-32.3,14.2-72.3,20.5-106.5,15.8c-14.7-2-25.2-8.8-29.7-28.2C666.6,644,671.9,613.1,676.8,586.8z"/>
		<path class="st2" d="M696.8,569.6c12-56.1,37.8-107.3,75.4-141c42.2-37.7,96.5-58.7,146.4-69.4c26.5-5.7,84-21,97.5,22.9
			s-25.6,87.3-48.1,111.1c-27.3,28.9-56.7,56.8-86.1,82.7c-25.5,22.5-52.8,45.6-80.5,63c-15.3,9.7-31.6,17.8-48.6,24.1
			c-12.4,4.5-28.1,11.3-41.1,7.9C679,662.5,691.1,596.4,696.8,569.6z"/>
		<path class="st1" d="M721.5,552.8c26.2-106.1,109.3-158.2,189.4-176.4c18.6-4.2,70.7-19.4,81.1,13C1002,420.8,970,458,955,475.7
			c-46.5,54.7-103.9,95.3-158.3,135.4c-17,12.5-47.6,39.8-68.7,27.2C705.2,624.6,716,574.8,721.5,552.8z"/>
		<path class="st1" d="M748.3,532.4c22.8-78.1,89.2-122.9,150.2-137.7c14.9-3.6,52.9-14.9,64.2,6.9c10.5,20.2-14.5,49.4-23.9,61
			c-20.8,25.8-45.5,47.1-69.8,67.6c-22.5,18.9-45.3,38.4-69,54.4c-12.5,8.4-35.9,26.4-50.1,13.4C734.6,584,743.3,549.7,748.3,532.4z
			"/>
		<path class="st0" d="M777.9,509.6c17.4-51,64-84.1,105-95.1c11-3,34.9-10.6,44.3,3c8.6,12.5-5.2,30.9-11.4,39.4
			c-27.2,37.6-67.1,71.3-103.6,91.9c-9.2,5.2-25.7,15.4-35.1,4.9C767.5,542.9,773.9,521.3,777.9,509.6z"/>
		<path class="st3" d="M809.3,488.1c9.8-25.3,35.4-44.4,56.6-50.5c14.9-4.3,32.9-0.6,19.9,21.5c-12.9,21.9-36.9,41.9-57.2,50.7
			C813.1,516.6,800.9,509.9,809.3,488.1z"/>
		<path class="st2" d="M14.9,663.6c-0.6-50-21.2-102-11-153c8.3-41.9,50.3-45.4,75.5-64.3c20-15.1,31.4-41.8,42.2-67.4
			c9.7-23,18.4-46.7,28.7-69.3c6.6-14.6,18-43.3,32.4-43.9c13.8-0.5,26.4,21.9,34.4,35.1c10.4,17.2,19.7,35.6,29.8,53.1
			c17.1,29.5,37.5,51.4,61,72.1c26.7,23.6,53.8,46.3,81.3,68.2c20.3,16.2,40.7,32.3,60.2,50.1c12.2,11.2,39.2,32.1,39.4,52.7
			c0,9.8-7.1,20.7-12,28.6c-8.2,13.3-17.6,25.5-27,37.3c-17.5,22.2-35.7,43.3-53.8,64.7c-23.4,27.8-45.8,55.1-66.4,86.7
			c-21.3,32.7-41.6,66.4-62.3,99.7c-14,22.5-28.1,47.8-48.3,61.7c-25.4,17.3-46.2-0.9-71.9-1.2c-22.1-0.2-20.4-66.4-23.3-84.8
			c-2.8-18.6-9-36-11.4-54.6c-3-23.3-3-47.2-3.8-70.7c-0.9-28.8-1.2-56.2-25-67.2c-13.6-6.3-28.2-7.6-42.3-11.3
			C32.2,683.5,15,679.4,14.9,663.6z"/>
		<path class="st0" d="M25.7,654.7c-2.3-41.9-16-95.6-3.1-138.9c11-37,45.6-41.8,68.8-61.2c19.2-16,27.8-42.3,37.3-68
			c7.7-20.7,15.2-41.5,23.9-61.6c6.4-14.8,16.3-39.6,29.7-42.7c12-2.7,25,19.2,31.7,30.4c9.9,16.3,18.3,34,27,51.4
			c15.3,30.5,31,57.9,53.4,80.3s47.1,39.3,72,56.8c19.5,13.7,38.8,27.8,57.3,43.6c13.8,11.8,33.6,26.8,39.9,47.8
			c5,16.6-20.3,44.2-27.8,53.9c-15.4,20-31.6,38.8-48,57.4c-19.9,22.7-40.4,42.6-58,68.6C298.6,819,272.4,876.7,232,911.2
			c-24.4,20.8-51.5,26.1-78.6,23c-10.7-1.2-13.3-20.8-14.7-32.3c-2.2-19-2.5-38.3-4.3-57.4c-1.6-17.8-5.2-34.8-8.1-52.3
			c-2.9-17.7-3.8-35.9-5.9-53.8c-1.3-11.1-2.7-24-8.5-32.9c-6.1-9.2-16-13.1-24.8-16C70.8,684,27.3,684.3,25.7,654.7z"/>
		<path class="st1" d="M39.7,637.1c-3.9-38.5-9.3-86.5,6.5-121.9c13-29,40.6-35.3,60.3-54.2c16.5-15.7,22.6-40.7,30.8-63.9
			c6.7-19,13.4-38.2,21.5-56.3c6.1-13.8,14.1-32.4,26.3-37.2c10.4-4.1,22.2,14.3,28,23.4c9.9,15.6,17.9,33,25.9,50.2
			c13,28.2,25.1,58.3,43.6,81.2c18,22.2,39.5,35.4,61.3,50.1c16.7,11.3,33.4,23,49.1,36.5c12.1,10.3,27.1,22.6,33.4,39.8
			c5.5,14.8-8.5,32.4-15.5,42.9c-11.5,17.3-24.4,33.2-37,49.1c-13.6,17.2-28.8,33-42,50.6c-27.8,37-50,78.1-84.2,106.4
			c-22.2,18.4-52,35.1-78.2,32.1c-18.8-2.2-17.6-56.1-19.4-73.3c-3-28.2-8.7-57.8-17.8-83.8c-7.8-22.2-26.5-29.1-43.6-34.1
			c-10.7-3.1-22-4.8-32.4-9.7C44.3,659.7,41.3,653.2,39.7,637.1z"/>
		<path class="st3" d="M52.7,619.1c-2.3-32.6-1.8-71,13.2-99.2c13.2-24.7,36.6-31.2,53.2-50.6c13-15.2,18.1-39.9,25.1-59.9
			c8.6-24.5,20.5-69.8,42.1-79c20.1-8.6,41,46.2,48.3,62.5c11.5,25.9,21.1,54.2,35,78.1c12,20.5,28.1,31.9,45.1,44.1
			c21.8,15.6,54.8,34.1,66.4,64.5c8.7,22.7-19.5,56.3-29.2,72c-10,16.4-17.6,35.8-28,51.6c-16.4,25-43,45-64.9,60.4
			C237.8,778.5,210,795,185.8,794c-15.9-0.7-18.9-32.4-22.3-48c-4.9-22.1-11.3-41.8-25.2-56.9c-14.1-15.2-30.8-22.4-48.3-28.8
			c-9-3.2-19.2-5.7-27.3-12.2C53.8,641.2,53.6,631.6,52.7,619.1z"/>
		<path class="st2" d="M68.6,600.3c0.1-28.1,5.1-58.1,19.8-79.8c12.3-18.1,31.5-24.1,43.2-42.6c9.3-14.6,14-35.1,20.3-52.1
			c7.6-20.8,18.4-57.2,37.4-64.4c18.5-7,34.9,33,42,48.9c10.4,23.2,18.8,47.9,29.3,71c8.2,18.2,18.2,29.9,31.6,41.6
			c15.7,13.8,37.6,29,46,51.8c6,16.5-8.6,42.8-13.9,57.3c-3.6,9.8-6.8,19.7-8.6,30.2c-1.4,8.2-1.5,15.8-5.6,22.9
			c-10.2,17.8-32.5,20.1-47.6,26c-20.1,7.8-41.4,16.6-62.5,18.3c-12.9,1-19.5-14.4-26.9-25.2c-8.7-12.8-21.1-22-31.9-31.7
			c-14.2-12.8-29.7-20.7-45.7-28.9c-7.2-3.7-15.7-7.3-21.3-14.6C68.3,621.5,68.5,610.5,68.6,600.3z"/>
		<path class="st1" d="M85.2,583.6c2.6-23.6,10.5-46.2,24-62.9c10.3-12.8,24-20,32.3-35.4c7.7-14.4,13.1-30.7,19.4-46
			c6.7-16.2,16.8-43.4,32.3-47.8c16.8-4.8,29.6,22.6,36.8,37.8c8.9,19.1,15.8,39.7,23.9,59.6c5.8,14.3,13.6,27.8,23,40.1
			c9.6,12.4,22.7,24.4,27.5,41.5c4.3,15.2-3.8,33.5-5.2,48.8c-1.5,16.4,1.1,33.7-7.3,47.8c-17.4,29.1-61,23.7-85.9,24.3
			c-24.6,0.6-44.4-17.2-64.3-34.1c-13.1-11.2-26.8-20.6-40.3-31C87.8,615.6,83,604.4,85.2,583.6z"/>
		<path class="st1" d="M100.7,570.1c7.6-34.2,31.2-52.4,48-78.3c13.8-21.2,24.1-65,47.4-70.8c26.4-6.6,42.2,51.5,51.4,73.9
			c10.2,24.9,28.3,45.1,35.8,71.4c4,13.8,0.6,26.7-1.5,40.5c-2.3,15.2-4,30.7-12,42.9c-15.7,24-46.4,23.8-68.5,24.5
			c-22.9,0.7-43.1-15.8-61.4-32.2C120.5,624.6,93,605.2,100.7,570.1z"/>
		<path class="st2" d="M113.4,560.8c8.5-24.4,26.4-44.2,40.9-62.9c12.1-15.6,25.1-47,43.6-49.2c21.7-2.6,34.9,30.9,43.4,51.5
			c8.4,20.2,20.5,41.5,25.2,63.7c4.9,23.1-8.1,54.2-20.4,70.5c-13.8,18.2-36.2,25-55.6,24.2c-20.2-0.7-38.8-15.8-54.1-31.4
			C120.1,610.5,103.5,589.1,113.4,560.8z"/>
		<path class="st1" d="M125.1,556.2c8.1-20.3,22.2-37.4,35.2-52.7c10-11.8,24.8-31.9,39.3-32.4c15.9-0.5,29.4,16.3,35.7,33.6
			c6.2,17,12.8,38.4,13.7,57.1c2,40.7-39.3,86.3-70.3,82.6C149.5,640.9,108.9,596.6,125.1,556.2z"/>
		<path class="st0" d="M136,554c11.2-26.4,38.5-64.1,63.7-65c28.9-1,36.2,40.9,32.4,71.3c-3.8,31-37.2,75.9-63.8,69.8
			C142.3,624.2,122.7,585.3,136,554z"/>
		<path class="st2" d="M147.5,549.7c9.5-22.1,29.8-49.8,50.9-50.6c25.2-1,24.7,34.4,19,56.4c-5.9,22.9-32.1,61.9-54.1,55.8
			C141.8,605.3,138.4,570.9,147.5,549.7z"/>
		<path class="st1" d="M157.4,547.2c6.3-15.8,22-35.7,36.9-36.4c18.2-0.8,14.7,27.3,10,40.8c-5.6,16.1-24.4,44.1-40.1,39.6
			C148.7,586.8,152.3,560.2,157.4,547.2z"/>
		<path class="st2" d="M1015.1,1449c-40.3,31.7-86,57.8-129,84.4c-62.9,38.8-126.7,76.6-192.7,105.5
			c-35.4,15.5-81.3,37.8-119.3,25.7c-13.9-4.4-26.6-17.9-39-26.6c-17.2-12-34.6-23.5-52-34.9c-34.9-23-69.9-45.7-104.2-70.2
			c-16.5-11.8-32.5-26.6-49.7-36.7c-10-5.9-22.1-3.1-32.8-2.8c-24.9,0.9-49.7,2.5-74.6,3.9c-30.4,1.7-60.9,3.5-91.3,2.8
			c-13.7-0.3-47.4,2.8-54.9-12.4c-4.1-8.2,5.5-23.1,10-30c8.2-12.6,17.5-24,26.8-35.3c21.4-26,44.1-50.9,63.1-80
			c9.8-15,22.6-33.2,16.2-53.7c-6.4-20.6-17.6-38.5-24.4-59c-7.8-23.7-11.1-48.3-14.8-73.4c-2.7-18.5-9.1-35-15.1-52.1
			c-6.6-18.9-13.5-38-18.1-57.9c-3-13.2-8-36.8,2.7-45.2c15.1-11.8,43.5-2.3,60.7,1.2c23.8,4.8,47.5,11,71.2,16.2
			c17.2,3.8,34.5,8.1,52.1,8.5c28.3,0.7,56.6-1.8,84.8-4.1c52.2-4.3,104-10.2,156.4-10.2c45.9,0,151.9,68.6,176.7,80.7
			c49.5,24.1,100.4,47,147.3,79.1c12.7,8.7,32.2,20.3,38.9,38.2c4.1,11,2.2,17.4,11.9,24.5c13.2,9.7,30.2,13.5,44.9,17.8
			c23.6,7,47.4,12.9,71.1,19.2c48,12.8,95.6,27.2,143.4,41c14.4,4.2,31.9,5.1,45.7,12.5c8.9,4.8,8,10.7,1.1,17.9
			c-12.1,12.7-28.9,19.7-43.2,26.9c-20.9,10.6-42.1,20-63.3,29.3s-42.5,18.3-63.8,27.6C1043.7,1434.2,1027.7,1439.1,1015.1,1449z"/>
		<path class="st0" d="M981.9,1442.1c-42.7,31.7-90.1,57-135.8,81.7c-58.5,31.6-118.2,61.2-179.8,80.9
			c-36.2,11.6-78.8,24.4-115.8,11.1c-13.2-4.7-23-15.4-34.3-24.8c-12.9-10.7-26.3-20.6-39.6-30.2c-27.5-19.9-55.4-39.2-83.5-57.7
			c-14.9-9.9-31.3-23.1-48.1-26.5c-13.4-2.7-28.6,1.2-42,2.4c-24.2,2.1-48.4,4.2-72.6,6c-27.9,2.1-55.9,4-83.9,3.7
			c-15.6-0.2-42.4,2.9-53.4-10.2c-9.6-11.4,25.4-52.5,31.6-60.3c19.2-24.4,39.5-47.7,57.4-73.8c10.6-15.4,23.5-34.1,27.9-54.5
			c3.8-17.4-3.5-37.2-7.9-53.3c-5.4-20.1-9.8-41-16.1-60.7c-5.6-17.6-14.5-33.2-22.4-49.2c-8.6-17.5-17.4-35.4-23.8-54.5
			c-3.9-11.8-10.4-31.5-2.6-42.8c9-13,36.7-4.5,48.1-2.6c23.1,3.8,46.1,9.4,69,14.5c38.1,8.4,74.5,15.7,113.4,14
			c50.6-2.3,101.1-7.7,151.7-10.7c18.7-1.1,37.7-3.4,56.3-2.2c10.7,0.7,18.9,4.9,25.1,14.5c8.5,13,28.1,20.2,41.8,27.7
			c21.3,11.5,42.8,22.4,64.3,33.4c47.1,24.1,95.2,47.4,139.8,78.6c14.1,9.9,30.3,20.9,40.8,37.2c5.8,9.1,4.4,17.8,7.9,27.5
			c4.7,12.7,20.2,18.4,29.5,22.6c17.9,8,36.5,13.4,55,18.5c41.8,11.4,83.7,18.9,126.2,24.4c10,1.3,49.2,5.7,28.6,27.2
			c-22.8,23.7-55.6,35.3-82.4,48.6C1028.3,1414.3,1004.2,1425.5,981.9,1442.1z"/>
		<path class="st1" d="M922.9,1436.2c-40.1,27.9-84.6,48.8-127.8,68.7c-52.4,24.2-106.2,45.7-161.2,57.8
			c-34.5,7.6-72.6,13.4-107,0.8c-23.4-8.6-41.6-31.8-62.1-47.8s-42-31-64.1-43.5c-13.7-7.8-28.4-15.6-43.6-14.6
			c-37,2.5-74,8.4-111.1,11.3c-24.5,1.9-49.1,3.5-73.7,3c-14.8-0.3-35.2,0.9-48.3-9.2c-14.5-11.2,62.8-106.5,70.1-117.2
			c18.3-26.9,40.5-62.6,37-100.8c-3.4-36.6-18.1-63.9-34.7-92.5c-9.4-16.3-39.6-59.8-28.4-81c6.4-12.1,27.5-7.9,37.5-7.1
			c19.7,1.6,39.4,5.1,59,8.2c28.6,4.4,58.1,11.2,86.8,13.2c20,1.4,40.2-0.5,60.2-0.5c28.8,0,57.5,0.2,86.3,0.6
			c24.2,0.3,48.5,0,72.6,3c15,1.8,26.3,6,37,17.7c9.3,10.2,23.4,16.2,35.3,22.6c19.7,10.7,39.6,20.6,59.4,30.7
			c41.6,21.1,83.6,41.7,123.4,68.1c18.2,12,48.7,28.8,53,58c1.5,10.5,2.7,15,10.6,21c11.3,8.5,24.8,12.3,37.4,15.6
			c29.5,7.8,59.8,6.6,89.2,14.3c12,3.2,27.6,10,13.9,25.6c-16,18.2-39.2,28.3-58.3,39.6c-9.5,5.6-19.4,10.9-28.4,17.8
			C936,1424.5,930,1431.3,922.9,1436.2z"/>
		<path class="st3" d="M846.9,1427.5c-37.1,22.7-77.3,39.2-116.9,54c-43.9,16.5-88.9,30.1-134.5,36c-31.5,4-65,5.2-95.5-7.1
			c-19.3-7.8-32.4-24.2-49-37.9c-25.1-20.8-52.2-37.2-82.4-33.2c-33.8,4.5-67.7,7.8-101.7,10.1c-20.5,1.4-41.1,2.4-61.6,1.4
			c-13-0.6-29.7-1.6-41-9.2c-15.1-10.2,41.7-87.7,48.7-99c17.6-28,30.4-57.4,37.9-92.1c6.1-28.3-6.4-50.6-19.3-71.8
			c-8-13.2-34-46.3-25.9-63.4c4.5-9.4,19.1-8.9,27-9.4c15-0.9,30.1,0,45.2,0.4c22.2,0.6,45.8-3.8,67.8-0.2
			c48.8,7.9,97.4,14.7,146.5,20c27.1,3,54.3,5.7,81.1,11.4c9.6,2,19.6,4.2,28.7,8.9c5.9,3,9.1,8.1,14,12.2
			c23.6,19.9,54.4,30.1,81,42.8c35.3,16.9,70.9,33.6,105.3,53.6c18.1,10.5,43.4,22.6,55.8,44.1c3.8,6.5,2.2,11.7,4.5,17.9
			c2.7,7.2,11,9.3,16.3,11.3c12.1,4.6,62.9,11.4,39.5,38.1c-11.2,12.7-25.4,20.9-38,30.9c-4.6,3.6-9,7.3-12.8,12.2
			C861.6,1417.6,855.4,1422.3,846.9,1427.5z"/>
		<path class="st2" d="M765.9,1417.7c-73.2,36.7-158.9,61.7-238.7,56.8c-26.5-1.6-55.1-7-78.1-25.5c-13.6-10.9-24.4-23.2-40.7-27.2
			c-11.8-2.8-24.4,0.4-36.3,1.6c-17.1,1.7-34.3,3.2-51.4,4.4c-21.3,1.5-42.6,2.6-63.9,2c-15.2-0.4-36.3,0.1-49.5-10.5
			c-15.8-12.6,24.4-71.8,30.1-82.4c13.7-25.6,23.3-50.3,26.8-81.2c1-9,4.5-18.2,4-27.2c-0.5-9.2-4.9-17.5-8.9-24.7
			c-5.3-9.5-23.8-32.1-18.5-43.7c2.9-6.4,13.9-7.2,19.5-8.6c10.6-2.6,21.5-4,32.2-6c18.2-3.5,36.2-14.8,54.5-14.5
			c49,0.8,98.8,20.5,146.9,31.3c28.6,6.4,57.4,12.3,85.6,21c8.9,2.8,18.1,5.6,26.6,10.3c5.9,3.3,9.7,9.1,15.2,12.8
			c21,14.1,45.2,22.6,67.8,32.1c29.3,12.3,58.8,24.3,87.9,37.4c18.3,8.2,41.7,15.4,57.5,30.7c11.5,11.1,3.6,14.5-2.4,24.8
			c-3.1,5.3-2.4,10.5-3.7,16.5c-1.9,8.5-7.3,14.7-12.4,20.2c-7,7.6-16.4,13.9-22.1,23.3c-2,3.3-1.9,7.4-3.6,10.3
			C785.5,1410.1,772.8,1414.2,765.9,1417.7z"/>
		<path class="st3" d="M688.1,1404.6c-59.4,23.1-125.5,36.2-188.3,30.1c-21.9-2.1-43.8-7.1-64.2-17.9c-9.3-4.9-16.2-10.4-26.4-10.7
			c-23.5-0.7-47.1,1.7-70.7,2.3c-16.8,0.4-33.8,0.6-50.6-1.2c-11.2-1.2-26.4-2.6-35.6-11.5c-13.4-13,10.8-57.1,15.7-69.3
			c8.1-20.2,16.2-42.7,13-66.1c-1-7.2-2.7-13.5-3-20.8c-0.2-6.3,0.4-12-1.3-18c-2.1-7.4-11.6-19-8.3-25.8c2.2-4.7,8.8-4.9,13.1-6.4
			c7.2-2.5,14.1-5.7,20.7-9.5c7-4.1,13-10.5,20.3-13.9c11.8-5.5,25.1-6.1,37.5-6c49.6,0.1,99.8,12.8,148.2,26
			c25.2,6.9,50.5,14.2,75,24.7c7.4,3.2,15.8,6.4,22.4,12.2c4.1,3.7,6.8,8.2,11.5,11c39.6,23.4,85.3,32.2,127.3,49.1
			c10.9,4.4,71.5,26.7,39.8,47.6c-19.2,12.7-39.6,18.5-57.1,35.9c-5.3,5.3-8.9,9.7-11,17.8c-1.4,5.4,1.9,2.7-2.7,8.3
			C707.9,1399.2,695,1401.9,688.1,1404.6z"/>
		<path class="st1" d="M626.4,1390.9c-69.9,18.7-143.4,19.8-213.8,3c-17.8-4.2-36.3-3.2-54.4-4.3c-17.5-1-48.6,1.1-61.4-16.3
			c-9.2-12.6,0.8-39.5,4.2-53.6c4.4-18,8.3-36.6,1-54.1c-4.2-10.2-10.1-20-14.6-30.1c-2.2-4.8-6.6-12.3-4.8-16.8
			c3.1-7.6,17.5-10.8,24.5-14.3c22.4-11.4,46.1-14.3,70.1-14.2c44.3,0.2,88.8,8,132.2,18.6c20,4.9,40.2,10.1,59.5,18.6
			c10.9,4.8,18.9,14.1,29.3,19.6c33.5,17.7,69.5,27.2,103.6,43.4c9.9,4.7,46.7,20.3,28.2,38.7c-18,17.8-44.2,15.7-62.9,32.4
			c-2.1,1.9-4.7,4.2-6,7.3c-0.7,1.9,0.5,5.4,0,6.4C655.6,1386.7,635.2,1388.6,626.4,1390.9z"/>
		<path class="st1" d="M581.3,1378.5c-35.7,6.3-72.1,7.9-108.4,8.3c-19.8,0.2-41.6,1.8-61-4.6c-11.7-4.1-23.6-7.4-35.7-10
			c-13.2-2.7-34.5-4.7-42.5-19.4c-6-11-1.9-33.6-1.7-47c0.2-14.7-2.1-25.5-10.1-36c-5-6.6-28.1-30.6-25.4-37.5
			c2.5-6.6,18.6-7.6,25.6-9.3c22-5.4,44.2-7.3,66.6-7c34.8,0.6,69.5,4.9,103.4,12.8c14.1,3.3,28.7,6.6,42.1,13.2
			c9.1,4.4,16.6,12.2,25.6,16.7c25.8,13,53,21.9,78.9,35.1c8.3,4.3,35.4,15.6,28.9,33.1c-5.4,14.6-23.8,19-32.8,28.8
			C619.3,1372.5,600.9,1375,581.3,1378.5z"/>
		<path class="st2" d="M558.8,1370.1c-28.5,4.1-57.2,6.1-86,6.1c-18.5,0.1-38.1,0.4-56.3-5c-9.1-2.7-17.1-9-25.7-13.5
			c-8.9-4.6-21.2-9.8-25-20.4c-3.6-10-2.3-24.6-5.4-36.6c-2.8-10.7-8.7-17.3-15.1-24.5c-4.1-4.6-24.9-24.6-22.5-29
			c2.6-4.7,15.1-4.3,21.6-5c17.9-1.8,35.9-2.4,53.9-1.8c24.5,1,49.3,3.7,73.4,9.8c17.1,4.3,30,14.7,46,22.3
			c20.7,9.9,42.1,17.7,62.5,28.5c10.2,5.4,25.3,12.3,30.5,26.2c2,5.3,4,18.9,1.7,24.2c-2.7,6.4-12.7,9.1-17.4,10.8
			C583.2,1366.3,570.9,1368.3,558.8,1370.1z"/>
		<path class="st3" d="M532.3,1359.9c-35.3,5.1-75.3,9.5-110.8-0.9c-14.3-4.2-28.6-16.6-34.5-33.5c-3-8.7-3.7-19.1-8.2-27.6
			c-3.4-6.1-7.4-11.8-11.8-17.1c-2.4-3-17.5-19.3-14.6-22.2c3.1-3.1,10.7-2.1,15.8-2.1c12.4-0.2,24.8,0.4,37.2,1.6
			c14.2,1.4,28.8,3.2,42.5,8.1c11.1,4,21.2,12.4,32.1,17.4c28.5,13.2,58.5,23.6,85.2,43.1c5.7,4.2,16.9,10.4,10.1,19.8
			C566.8,1358.3,543.3,1358.3,532.3,1359.9z"/>
		<path class="st0" d="M501.5,1350.6c-25.2,3.6-53.1,5.3-78.4-2.1c-12.8-3.8-24.2-11.6-29.8-26.8c-4-10.8-5.1-22.8-10.5-33.2
			c-1.9-3.7-9-13.9-5.5-16.2c7.5-4.8,24.2,0.7,34.6,3.3c15.6,3.8,28.7,14.6,43.5,20.9c22.8,9.8,51.7,15,72.4,31.6
			C547.8,1344.2,508.9,1349.5,501.5,1350.6z"/>
		<path class="st1" d="M472.7,1341.8c-21.4,3.2-59.4,4.8-71.6-21.2c-2.3-4.8-8.5-31.6-2.5-34c5-2,12.8,1.3,18.4,4.3
			c10.5,5.6,20.3,11.7,31.1,16.3c9.2,3.9,18.6,7.6,27.7,12.1c3.9,1.9,11.1,4.2,13.5,8.6C495.8,1339.7,479.2,1340.8,472.7,1341.8z"/>
	</g>
</g>
</svg>
