<svg xmlns="http://www.w3.org/2000/svg" viewBox="0 0 200 61.85"><defs><style>.cls-1{fill:#fff;}</style></defs><g id="Слой_2" data-name="Слой 2"><g id="Слой_1-2" data-name="Слой 1"><path class="cls-1" d="M30.94,19.33V9.67A1.94,1.94,0,0,0,29,7.73H27.07V1.94A1.94,1.94,0,0,0,25.14,0C22.4,0,18.21-.21,13.29,2.74a23,23,0,0,0-7.49-.8A1.92,1.92,0,0,0,3.87,3.87V7.73H1.93A1.94,1.94,0,0,0,0,9.67v9.66A15.48,15.48,0,0,0,13.54,34.67V59.91a1.93,1.93,0,1,0,3.86,0V53.15h2.9A10.65,10.65,0,0,0,30.94,42.52v-2.9A1.93,1.93,0,0,0,29,37.69H24.17a10.59,10.59,0,0,0-6.77,2.43V34.67A15.46,15.46,0,0,0,30.94,19.33Zm-3.87,0A11.55,11.55,0,0,1,23.14,28a7.3,7.3,0,0,0,.06-.94,19.26,19.26,0,0,0-4.84-12.78,15.44,15.44,0,0,1,8.71-2.68ZM23.2,3.87V8.12l-1.06.25a19.43,19.43,0,0,0-4.25-3.56,15.39,15.39,0,0,1,5.31-.94ZM7.73,5.8A15.37,15.37,0,0,1,18.21,9.88a20.08,20.08,0,0,0-2.75,1.72A19.21,19.21,0,0,0,7.73,8.12ZM3.87,19.33V11.6A15.48,15.48,0,0,1,19.34,27.06a3.87,3.87,0,0,1-4,3.86A11.59,11.59,0,0,1,3.87,19.33Zm20.3,22.22h2.9v1a6.77,6.77,0,0,1-6.77,6.76H17.4v-1A6.78,6.78,0,0,1,24.17,41.55Z"/><polygon class="cls-1" points="69.19 26.73 75.18 16.07 69.28 16.07 65.76 23.22 62.25 16.07 56.33 16.07 62.34 26.73 56.16 37.57 62.14 37.57 65.76 30.29 69.38 37.57 75.35 37.57 69.19 26.73"/><path class="cls-1" d="M85.68,42.93a9,9,0,0,0-3.16-2.13,10.36,10.36,0,0,0-4-.75H71.61v21.5h7a10.38,10.38,0,0,0,4-.74,9.36,9.36,0,0,0,3.15-2.12,9.65,9.65,0,0,0,2-3.27,11.4,11.4,0,0,0,.74-4.16v-.9a11.34,11.34,0,0,0-.74-4.17A9.36,9.36,0,0,0,85.68,42.93ZM83.2,51.26a9.55,9.55,0,0,1-.55,3.48,4,4,0,0,1-4.06,2.82h-1.8V44.05h1.73a4.71,4.71,0,0,1,2,.4A3.72,3.72,0,0,1,82,45.65a5.3,5.3,0,0,1,.89,2,10.49,10.49,0,0,1,.31,2.72Z"/><rect class="cls-1" x="40.76" y="40.05" width="5.17" height="21.5"/><path class="cls-1" d="M139.86,30h2.79l3.79,7.59H152v-.22l-4.5-8.7a8.54,8.54,0,0,0,1.59-.94,5.65,5.65,0,0,0,1.61-2.06,7.33,7.33,0,0,0,.57-3.08,6.14,6.14,0,0,0-1-3.58,6.06,6.06,0,0,0-2.82-2.18,11.54,11.54,0,0,0-4.31-.74h-8.46v21.5h5.18Zm3.28-9.91a3.3,3.3,0,0,1,1.61.36,2.32,2.32,0,0,1,1,1,3.47,3.47,0,0,1,.34,1.6,3.38,3.38,0,0,1-.34,1.58,2.29,2.29,0,0,1-1,1,3.37,3.37,0,0,1-1.64.36h-3.28V20.07Z"/><polygon class="cls-1" points="45.61 37.57 55.22 37.57 55.22 33.58 45.61 33.58 45.61 28.46 53.74 28.46 53.74 24.6 45.61 24.6 45.61 20.07 55.26 20.07 55.26 16.07 45.61 16.07 43.76 16.07 40.42 16.07 40.42 37.57 43.76 37.57 45.61 37.57"/><polygon class="cls-1" points="62.76 53.43 55.16 40.05 49.98 40.05 49.98 61.55 55.16 61.55 55.16 48.17 62.76 61.55 67.93 61.55 67.93 40.05 62.76 40.05 62.76 53.43"/><rect class="cls-1" x="171.49" y="40.05" width="5.17" height="21.5"/><polygon class="cls-1" points="158.14 16.07 154.8 16.07 154.8 37.57 158.14 37.57 159.98 37.57 169.6 37.57 169.6 33.58 159.98 33.58 159.98 28.46 168.12 28.46 168.12 24.6 159.98 24.6 159.98 20.07 169.64 20.07 169.64 16.07 159.98 16.07 158.14 16.07"/><path class="cls-1" d="M158.29,44a4.15,4.15,0,0,1,1.64-.29,3.58,3.58,0,0,1,1.66.35,2.23,2.23,0,0,1,1,1,2.88,2.88,0,0,1,.34,1.43h5.16a6,6,0,0,0-1-3.53,6.58,6.58,0,0,0-2.83-2.32,9.91,9.91,0,0,0-4.17-.83,12.18,12.18,0,0,0-3.29.43,8.48,8.48,0,0,0-2.63,1.21,5.82,5.82,0,0,0-1.73,1.91,5.05,5.05,0,0,0-.62,2.49,5.16,5.16,0,0,0,.61,2.54A6.26,6.26,0,0,0,154,50.22a12,12,0,0,0,2.35,1.41,27.63,27.63,0,0,0,2.73,1.06,15.85,15.85,0,0,1,2,.77,4.68,4.68,0,0,1,1.15.71,1.9,1.9,0,0,1,.55.77,2.74,2.74,0,0,1,.14.9,2.08,2.08,0,0,1-.28,1.06,2,2,0,0,1-.88.77,4,4,0,0,1-1.6.28,7.79,7.79,0,0,1-1.62-.16,3.18,3.18,0,0,1-1.2-.57,2.5,2.5,0,0,1-.74-1,4.67,4.67,0,0,1-.25-1.6h-5.2A6.34,6.34,0,0,0,154,60.13a9.64,9.64,0,0,0,2.9,1.3,12.84,12.84,0,0,0,3.26.42,12.6,12.6,0,0,0,3.26-.4,7.72,7.72,0,0,0,2.52-1.17,5.53,5.53,0,0,0,1.61-1.9,5.75,5.75,0,0,0,.56-2.57,5.94,5.94,0,0,0-.49-2.44,5.65,5.65,0,0,0-1.4-1.92,9.39,9.39,0,0,0-2.26-1.52,21.33,21.33,0,0,0-3-1.23c-.62-.19-1.17-.4-1.66-.6a8.82,8.82,0,0,1-1.24-.65,3.25,3.25,0,0,1-.78-.73,1.52,1.52,0,0,1-.27-.88,1.82,1.82,0,0,1,.34-1.08A2.36,2.36,0,0,1,158.29,44Z"/><polygon class="cls-1" points="137.84 40.05 134.5 40.05 134.5 61.55 137.84 61.55 139.68 61.55 149.29 61.55 149.29 57.56 139.68 57.56 139.68 52.44 147.82 52.44 147.82 48.59 139.68 48.59 139.68 44.05 149.34 44.05 149.34 40.05 139.68 40.05 137.84 40.05"/><path class="cls-1" d="M194.42,61.55H200l-7.94-21.5h-4.89l-7.9,21.5h5.57l1.23-4h7.11Zm-7.11-8,2.31-7.48,2.32,7.48Z"/><polygon class="cls-1" points="102.74 16.07 97.55 16.07 97.55 37.57 100.89 37.57 102.74 37.57 111.76 37.57 111.76 33.58 102.74 33.58 102.74 16.07"/><path class="cls-1" d="M107.14,42.6a8.43,8.43,0,0,0-3-2.11,9.48,9.48,0,0,0-3.78-.74,9.69,9.69,0,0,0-3.81.74,8.41,8.41,0,0,0-3,2.11,9.73,9.73,0,0,0-1.94,3.34A13.6,13.6,0,0,0,91,50.37v.87a13.56,13.56,0,0,0,.68,4.43,9.68,9.68,0,0,0,2,3.34,8.67,8.67,0,0,0,3,2.11,9.84,9.84,0,0,0,3.81.73,9.65,9.65,0,0,0,3.78-.73,8.45,8.45,0,0,0,3-2.11,9.66,9.66,0,0,0,1.94-3.34,13.29,13.29,0,0,0,.69-4.43v-.87a13.33,13.33,0,0,0-.69-4.43A9.91,9.91,0,0,0,107.14,42.6Zm-2.62,8.64a12.49,12.49,0,0,1-.28,2.81,6.27,6.27,0,0,1-.79,2.05,3.56,3.56,0,0,1-1.29,1.27,3.5,3.5,0,0,1-1.76.43,3.64,3.64,0,0,1-1.81-.43,3.51,3.51,0,0,1-1.3-1.27,6.5,6.5,0,0,1-.79-2.05,14.67,14.67,0,0,1-.25-2.81v-.9a14.41,14.41,0,0,1,.25-2.8,6.47,6.47,0,0,1,.79-2.06,3.45,3.45,0,0,1,1.28-1.24,3.68,3.68,0,0,1,1.8-.42,3.52,3.52,0,0,1,3.08,1.66,6.24,6.24,0,0,1,.79,2.06,12.27,12.27,0,0,1,.28,2.8Z"/><path class="cls-1" d="M93.36,27a6.56,6.56,0,0,0,1-3.64,7.06,7.06,0,0,0-1-3.75A6.94,6.94,0,0,0,90.48,17,9.7,9.7,0,0,0,86,16.07H77.46v21.5h5.18v-7.3H86a10.56,10.56,0,0,0,4.44-.85A6.7,6.7,0,0,0,93.36,27ZM88.8,24.88a2.22,2.22,0,0,1-1,1,3.69,3.69,0,0,1-1.77.37h-3.4v-6.2H86a3.11,3.11,0,0,1,1.77.47,2.72,2.72,0,0,1,1,1.21,4.24,4.24,0,0,1,.32,1.64A3.43,3.43,0,0,1,88.8,24.88Z"/><path class="cls-1" d="M129,18.62a8.31,8.31,0,0,0-3-2.11,9.48,9.48,0,0,0-3.78-.74,9.66,9.66,0,0,0-3.81.74,8.41,8.41,0,0,0-3,2.11A9.87,9.87,0,0,0,113.47,22a13.6,13.6,0,0,0-.68,4.43v.87a13.56,13.56,0,0,0,.68,4.43,9.78,9.78,0,0,0,2,3.34,8.67,8.67,0,0,0,3,2.11,9.8,9.8,0,0,0,3.81.72,9.65,9.65,0,0,0,3.78-.72A8.45,8.45,0,0,0,129,35a9.76,9.76,0,0,0,1.94-3.34,13.29,13.29,0,0,0,.69-4.43v-.87A13.33,13.33,0,0,0,130.9,22,9.91,9.91,0,0,0,129,18.62Zm-2.62,8.64a12.49,12.49,0,0,1-.28,2.81,6.27,6.27,0,0,1-.8,2,3.38,3.38,0,0,1-3,1.7,3.64,3.64,0,0,1-1.81-.43,3.59,3.59,0,0,1-1.3-1.27,6.5,6.5,0,0,1-.79-2,14.67,14.67,0,0,1-.25-2.81v-.9a14.41,14.41,0,0,1,.25-2.8,6.37,6.37,0,0,1,.79-2.06,3.45,3.45,0,0,1,1.28-1.24,3.69,3.69,0,0,1,1.8-.43,3.61,3.61,0,0,1,1.76.43,3.52,3.52,0,0,1,1.31,1.24,6.16,6.16,0,0,1,.8,2.06,12.27,12.27,0,0,1,.28,2.8Z"/><polygon class="cls-1" points="125.65 53.43 118.05 40.05 112.86 40.05 112.86 61.55 118.05 61.55 118.05 48.17 125.65 61.55 130.82 61.55 130.82 40.05 125.65 40.05 125.65 53.43"/></g></g></svg>