<svg xmlns="http://www.w3.org/2000/svg" viewBox="0 0 100.05 200"><defs><style>.cls-1{fill:#dd2242;}</style></defs><g id="Слой_2" data-name="Слой 2"><g id="Слой_1-2" data-name="Слой 1"><path class="cls-1" d="M100.05,62.51V31.26A6.25,6.25,0,0,0,93.79,25H87.54V6.26A6.25,6.25,0,0,0,81.29,0C72.44,0,58.88-.67,43,8.86c-9.89-2.94-16.89-2.6-24.2-2.6a6.25,6.25,0,0,0-6.25,6.25V25H6.25A6.25,6.25,0,0,0,0,31.26V62.51a50.07,50.07,0,0,0,43.77,49.6v81.64a6.26,6.26,0,0,0,12.51,0V171.88h9.38a34.42,34.42,0,0,0,34.39-34.38v-9.37a6.25,6.25,0,0,0-6.26-6.25H78.16a34.24,34.24,0,0,0-21.88,7.88V112.11a50,50,0,0,0,43.77-49.6Zm-12.51,0a37.41,37.41,0,0,1-12.7,28.05,25.61,25.61,0,0,0,.2-3A62.2,62.2,0,0,0,59.38,46.19a49.91,49.91,0,0,1,28.16-8.68ZM75,12.51V26.27c-1.16.24-2.31.5-3.45.8A62.51,62.51,0,0,0,57.86,15.54a50.12,50.12,0,0,1,17.18-3ZM25,18.76A49.69,49.69,0,0,1,58.88,32,60.75,60.75,0,0,0,50,37.53,62.21,62.21,0,0,0,25,26.27ZM12.51,62.51v-25a50.07,50.07,0,0,1,50,50A12.52,12.52,0,0,1,49.69,100,37.52,37.52,0,0,1,12.51,62.51Zm65.65,71.87h9.38v3.12a21.91,21.91,0,0,1-21.88,21.88H56.28v-3.13A21.9,21.9,0,0,1,78.16,134.38Z"/></g></g></svg>