<svg xmlns="http://www.w3.org/2000/svg" viewBox="0 0 200 200"><defs><style>.cls-1{fill:#fff;fill-rule:evenodd;}</style></defs><g id="Слой_2" data-name="Слой 2"><g id="Слой_1-2" data-name="Слой 1"><path class="cls-1" d="M198.22,80H102.11c0,10,0,30-.06,40h55.69c-2.13,10-9.7,24-20.39,31,0,0,0,.06,0,0-14.21,9.38-33,11.51-46.9,8.71a61.83,61.83,0,0,1-46.12-40.27s.07-.31.1-.33C40,106.73,40,90,44.39,80h0C50,61.67,67.84,44.91,89.7,40.32c17.58-3.73,37.42.31,52,14,1.94-1.9,26.85-26.22,28.72-28.2C120.58-19.07,40.77-3.18,10.9,55.11h0s0,0-.05.11a97.69,97.69,0,0,0,.1,89.64l-.1.08a101.77,101.77,0,0,0,64.8,51.65c30.11,7.9,68.43,2.5,94.1-20.72l0,0C191.52,156.32,205.06,122.94,198.22,80Z"/></g></g></svg>